<svg preserveAspectRatio="xMidYMid meet" id="visual" viewBox="0 0 960 540" width="960" height="540" xmlns="http://www.w3.org/2000/svg" xmlns:xlink="http://www.w3.org/1999/xlink" version="1.1"><rect x="0" y="0" width="960" height="540" fill="#5B0888"></rect><defs><linearGradient id="grad1_0" x1="43.8%" y1="0%" x2="100%" y2="100%"><stop offset="14.444444444444446%" stop-color="#9d76c1" stop-opacity="1"></stop><stop offset="85.55555555555554%" stop-color="#9d76c1" stop-opacity="1"></stop></linearGradient></defs><defs><linearGradient id="grad1_1" x1="43.8%" y1="0%" x2="100%" y2="100%"><stop offset="14.444444444444446%" stop-color="#9d76c1" stop-opacity="1"></stop><stop offset="85.55555555555554%" stop-color="#8756ae" stop-opacity="1"></stop></linearGradient></defs><defs><linearGradient id="grad1_2" x1="43.8%" y1="0%" x2="100%" y2="100%"><stop offset="14.444444444444446%" stop-color="#71359b" stop-opacity="1"></stop><stop offset="85.55555555555554%" stop-color="#8756ae" stop-opacity="1"></stop></linearGradient></defs><defs><linearGradient id="grad1_3" x1="43.8%" y1="0%" x2="100%" y2="100%"><stop offset="14.444444444444446%" stop-color="#71359b" stop-opacity="1"></stop><stop offset="85.55555555555554%" stop-color="#5b0888" stop-opacity="1"></stop></linearGradient></defs><defs><linearGradient id="grad2_0" x1="0%" y1="0%" x2="56.3%" y2="100%"><stop offset="14.444444444444446%" stop-color="#9d76c1" stop-opacity="1"></stop><stop offset="85.55555555555554%" stop-color="#9d76c1" stop-opacity="1"></stop></linearGradient></defs><defs><linearGradient id="grad2_1" x1="0%" y1="0%" x2="56.3%" y2="100%"><stop offset="14.444444444444446%" stop-color="#8756ae" stop-opacity="1"></stop><stop offset="85.55555555555554%" stop-color="#9d76c1" stop-opacity="1"></stop></linearGradient></defs><defs><linearGradient id="grad2_2" x1="0%" y1="0%" x2="56.3%" y2="100%"><stop offset="14.444444444444446%" stop-color="#8756ae" stop-opacity="1"></stop><stop offset="85.55555555555554%" stop-color="#71359b" stop-opacity="1"></stop></linearGradient></defs><defs><linearGradient id="grad2_3" x1="0%" y1="0%" x2="56.3%" y2="100%"><stop offset="14.444444444444446%" stop-color="#5b0888" stop-opacity="1"></stop><stop offset="85.55555555555554%" stop-color="#71359b" stop-opacity="1"></stop></linearGradient></defs><g transform="translate(960, 0)"><path d="M0 486C-57.4 465 -114.7 444 -175.7 424.1C-236.6 404.1 -301.1 385.2 -343.7 343.7C-386.2 302.1 -406.8 237.9 -426.8 176.8C-446.9 115.7 -466.4 57.9 -486 0L0 0Z" fill="#662292"></path><path d="M0 364.5C-43 348.8 -86 333 -131.7 318C-177.4 303.1 -225.8 288.9 -257.7 257.7C-289.6 226.6 -305.1 178.4 -320.1 132.6C-335.2 86.8 -349.8 43.4 -364.5 0L0 0Z" fill="#7c46a5"></path><path d="M0 243C-28.7 232.5 -57.4 222 -87.8 212C-118.3 202.1 -150.6 192.6 -171.8 171.8C-193.1 151 -203.4 118.9 -213.4 88.4C-223.4 57.9 -233.2 28.9 -243 0L0 0Z" fill="#9266b8"></path><path d="M0 121.5C-14.3 116.3 -28.7 111 -43.9 106C-59.1 101 -75.3 96.3 -85.9 85.9C-96.5 75.5 -101.7 59.5 -106.7 44.2C-111.7 28.9 -116.6 14.5 -121.5 0L0 0Z" fill="#9d76c1"></path></g><g transform="translate(0, 540)"><path d="M0 -486C69.8 -485.5 139.6 -485.1 186 -449C232.4 -412.9 255.3 -341.2 292 -292C328.8 -242.9 379.3 -216.3 413.9 -171.4C448.5 -126.5 467.3 -63.3 486 0L0 0Z" fill="#662292"></path><path d="M0 -364.5C52.4 -364.2 104.7 -363.8 139.5 -336.8C174.3 -309.7 191.5 -255.9 219 -219C246.6 -182.2 284.5 -162.3 310.4 -128.6C336.4 -94.9 350.4 -47.5 364.5 0L0 0Z" fill="#7c46a5"></path><path d="M0 -243C34.9 -242.8 69.8 -242.5 93 -224.5C116.2 -206.5 127.7 -170.6 146 -146C164.4 -121.4 189.6 -108.2 206.9 -85.7C224.3 -63.3 233.6 -31.6 243 0L0 0Z" fill="#9266b8"></path><path d="M0 -121.5C17.5 -121.4 34.9 -121.3 46.5 -112.3C58.1 -103.2 63.8 -85.3 73 -73C82.2 -60.7 94.8 -54.1 103.5 -42.9C112.1 -31.6 116.8 -15.8 121.5 0L0 0Z" fill="#9d76c1"></path></g></svg>