<svg id="visual" viewBox="0 0 960 540" width="960" height="540" xmlns="http://www.w3.org/2000/svg" xmlns:xlink="http://www.w3.org/1999/xlink" version="1.1"><path d="M330 0L340.2 15C350.3 30 370.7 60 369.5 90C368.3 120 345.7 150 339.2 180C332.7 210 342.3 240 366.5 270C390.7 300 429.3 330 450.3 360C471.3 390 474.7 420 455.5 450C436.3 480 394.7 510 373.8 525L353 540L0 540L0 525C0 510 0 480 0 450C0 420 0 390 0 360C0 330 0 300 0 270C0 240 0 210 0 180C0 150 0 120 0 90C0 60 0 30 0 15L0 0Z" fill="#5B0888" stroke-linecap="round" stroke-linejoin="miter"></path></svg>